<?xml version="1.0" encoding="UTF-8" standalone="no"?>
<!-- Created with Inkscape (http://www.inkscape.org/) -->

<svg
   xmlns:dc="http://purl.org/dc/elements/1.1/"
   xmlns:cc="http://creativecommons.org/ns#"
   xmlns:rdf="http://www.w3.org/1999/02/22-rdf-syntax-ns#"
   xmlns:svg="http://www.w3.org/2000/svg"
   xmlns="http://www.w3.org/2000/svg"
   xmlns:sodipodi="http://sodipodi.sourceforge.net/DTD/sodipodi-0.dtd"
   xmlns:inkscape="http://www.inkscape.org/namespaces/inkscape"
   width="210mm"
   height="297mm"
   viewBox="0 0 210 297"
   version="1.1"
   id="svg8"
   inkscape:version="0.92.4 (5da689c313, 2019-01-14)"
   sodipodi:docname="Outline.svg">
  <defs
     id="defs2" />
  <sodipodi:namedview
     id="base"
     pagecolor="#ffffff"
     bordercolor="#666666"
     borderopacity="1.0"
     inkscape:pageopacity="0.0"
     inkscape:pageshadow="2"
     inkscape:zoom="1.4"
     inkscape:cx="290.48686"
     inkscape:cy="439.20248"
     inkscape:document-units="mm"
     inkscape:current-layer="layer1"
     showgrid="false"
     inkscape:window-width="1920"
     inkscape:window-height="986"
     inkscape:window-x="-11"
     inkscape:window-y="-11"
     inkscape:window-maximized="1" />
  <metadata
     id="metadata5">
    <rdf:RDF>
      <cc:Work
         rdf:about="">
        <dc:format>image/svg+xml</dc:format>
        <dc:type
           rdf:resource="http://purl.org/dc/dcmitype/StillImage" />
        <dc:title></dc:title>
      </cc:Work>
    </rdf:RDF>
  </metadata>
  <g
     inkscape:label="Layer 1"
     inkscape:groupmode="layer"
     id="layer1">
    <path
       style="fill:none;stroke:#000000;stroke-width:0.26458332px;stroke-linecap:butt;stroke-linejoin:miter;stroke-opacity:1"
       d="m 82.702554,156.06837 -34.594039,-10.34293 -12.294399,40.09044 12.888224,5.27497 7.672534,-30.37701 18.995132,5.85863 -14.699823,43.8322 -14.699824,21.9161 -26.726953,-5.87993 -2.672695,12.56167 36.948045,7.05972 16.452433,-25.52407 c 2.608653,-2.02207 3.821472,-0.9035 4.42145,1.59395 l -1.624913,36.78592 -10.618063,24.74534 14.02215,4.51674 10.690783,-28.06331 0.801806,-40.3577 10.78806,-50.67607 30.371448,-6.25234 10.15624,-30.46872 -12.47781,-1.71433 -8.14224,23.80598 -24.424359,2.34058 c -2.164325,-1.07249 -1.406696,-2.5624 -0.08156,-4.13338 3.944062,-3.79837 5.680572,-7.59674 7.141279,-11.39511 -0.38253,-6.15016 -2.691605,-6.90749 -5.280548,-8.76291 -4.735632,-2.55667 -7.491221,-0.4233 -10.436945,0.18899 -4.587155,2.49251 -4.705563,4.86745 -5.82064,7.85596 -1.584961,6.05772 2.169662,7.53865 3.730518,10.89995 1.091801,2.43563 1.892201,4.66311 -0.485291,4.62067 z"
       id="path815"
       inkscape:connector-curvature="0"
       sodipodi:nodetypes="ccccccccccccccccccccccccccccccc" />
  </g>
</svg>
