<?xml version="1.0" encoding="UTF-8" standalone="no"?>
<!-- Created with Inkscape (http://www.inkscape.org/) -->

<svg
   xmlns:dc="http://purl.org/dc/elements/1.1/"
   xmlns:cc="http://creativecommons.org/ns#"
   xmlns:rdf="http://www.w3.org/1999/02/22-rdf-syntax-ns#"
   xmlns:svg="http://www.w3.org/2000/svg"
   xmlns="http://www.w3.org/2000/svg"
   xmlns:sodipodi="http://sodipodi.sourceforge.net/DTD/sodipodi-0.dtd"
   xmlns:inkscape="http://www.inkscape.org/namespaces/inkscape"
   width="210mm"
   height="297mm"
   viewBox="0 0 210 297"
   version="1.1"
   id="svg8"
   inkscape:version="0.92.4 (5da689c313, 2019-01-14)"
   sodipodi:docname="Outline.svg">
  <defs
     id="defs2" />
  <sodipodi:namedview
     id="base"
     pagecolor="#ffffff"
     bordercolor="#666666"
     borderopacity="1.0"
     inkscape:pageopacity="0.0"
     inkscape:pageshadow="2"
     inkscape:zoom="0.98994949"
     inkscape:cx="331.65275"
     inkscape:cy="376.6609"
     inkscape:document-units="mm"
     inkscape:current-layer="layer1"
     showgrid="false"
     inkscape:window-width="1920"
     inkscape:window-height="986"
     inkscape:window-x="-11"
     inkscape:window-y="-11"
     inkscape:window-maximized="1" />
  <metadata
     id="metadata5">
    <rdf:RDF>
      <cc:Work
         rdf:about="">
        <dc:format>image/svg+xml</dc:format>
        <dc:type
           rdf:resource="http://purl.org/dc/dcmitype/StillImage" />
        <dc:title></dc:title>
      </cc:Work>
    </rdf:RDF>
  </metadata>
  <g
     inkscape:label="Layer 1"
     inkscape:groupmode="layer"
     id="layer1">
    <path
       style="fill:none;stroke:#000000;stroke-width:2;stroke-linecap:butt;stroke-linejoin:round;stroke-miterlimit:4;stroke-dasharray:6.00000017, 2.00000006;stroke-dashoffset:0;stroke-opacity:1;paint-order:markers fill stroke"
       d="m 82.702554,156.06837 c -3.862735,2.57412 -28.444494,-6.40443 -36.595725,-4.19026 -8.151232,2.21416 -14.000265,26.83795 -10.292713,33.93777 3.707552,7.09982 5.66434,7.09384 11.943284,3.76307 6.278944,-3.33077 -0.811521,-21.72473 6.538605,-25.65231 7.350126,-3.92758 17.556405,-1.67689 15.971322,7.55952 -1.585082,9.23641 -4.25427,28.05813 -9.597144,38.91851 -5.342874,10.86038 -6.385404,18.57865 -14.699824,21.9161 -8.31442,3.33745 -21.093304,-9.50925 -26.726953,-5.87993 -5.633649,3.62932 -7.3249,5.55573 -2.672695,12.56167 4.652205,7.00594 26.532824,11.52128 36.948045,7.05972 10.415221,-4.46156 10.915964,-23.65168 16.452433,-25.52407 5.536469,-1.87239 0.569394,-4.15515 4.42145,1.59395 3.852056,5.7491 0.742842,26.42827 -1.624913,36.78592 -2.367755,10.35765 -13.493017,18.42538 -10.618063,24.74534 2.874954,6.31996 7.29669,7.74561 14.02215,4.51674 6.72546,-3.22887 8.452814,-16.546 10.690783,-28.06331 2.237969,-11.51731 2.065703,-25.66291 3.825616,-40.92466 1.759913,-15.26175 3.829687,-31.87709 13.622878,-41.60465 9.7932,-9.72756 14.56632,-5.12605 22.43395,-12.11097 7.86763,-6.98492 20.10379,-34.7749 6.37648,-36.32735 -13.72731,-1.55245 -7.09234,18.78 -14.76142,25.30445 -7.66908,6.52445 -20.856498,5.51919 -24.424359,2.34058 -3.567861,-3.17861 -0.863302,-1.30923 -0.08156,-4.13338 0.781742,-2.82415 7.106769,-7.44878 7.141279,-11.39511 0.0345,-3.94633 -2.265926,-7.09568 -5.280548,-8.76291 -3.014622,-1.66723 -7.441579,-1.35379 -10.436945,0.18899 -2.995366,1.54278 -5.276308,4.34828 -5.82064,7.85596 -0.544332,3.50768 3.42788,8.22254 3.730518,10.89995 0.302638,2.67741 3.377444,2.04655 -0.485291,4.62067 z"
       id="path815"
       inkscape:connector-curvature="0"
       sodipodi:nodetypes="zzzzzzzzzzzzzzzzzzzzzzzzzzzzzz" />
  </g>
</svg>
